<?xml version="1.0" encoding="UTF-8" standalone="no"?>
<svg
   xmlns:dc="http://purl.org/dc/elements/1.1/"
   xmlns:cc="http://creativecommons.org/ns#"
   xmlns:rdf="http://www.w3.org/1999/02/22-rdf-syntax-ns#"
   xmlns:svg="http://www.w3.org/2000/svg"
   xmlns="http://www.w3.org/2000/svg"
   xmlns:sodipodi="http://sodipodi.sourceforge.net/DTD/sodipodi-0.dtd"
   xmlns:inkscape="http://www.inkscape.org/namespaces/inkscape"
   inkscape:version="1.0 (6e3e5246a0, 2020-05-07)"
   sodipodi:docname="hamburger.svg"
   id="svg4"
   version="1.1"
   viewBox="0 0 448 512">
  <metadata
     id="metadata10">
    <rdf:RDF>
      <cc:Work
         rdf:about="">
        <dc:format>image/svg+xml</dc:format>
        <dc:type
           rdf:resource="http://purl.org/dc/dcmitype/StillImage" />
      </cc:Work>
    </rdf:RDF>
  </metadata>
  <defs
     id="defs8" />
  <sodipodi:namedview
     inkscape:current-layer="svg4"
     inkscape:window-maximized="1"
     inkscape:window-y="27"
     inkscape:window-x="0"
     inkscape:cy="256"
     inkscape:cx="224"
     inkscape:zoom="1.2714844"
     showgrid="false"
     id="namedview6"
     inkscape:window-height="1016"
     inkscape:window-width="1920"
     inkscape:pageshadow="2"
     inkscape:pageopacity="0"
     guidetolerance="10"
     gridtolerance="10"
     objecttolerance="10"
     borderopacity="1"
     bordercolor="#666666"
     pagecolor="#ffffff" />
  <path
     id="path2"
     d="M432 416H16a16 16 0 0 0-16 16v32a16 16 0 0 0 16 16h416a16 16 0 0 0 16-16v-32a16 16 0 0 0-16-16zm0-128H16a16 16 0 0 0-16 16v32a16 16 0 0 0 16 16h416a16 16 0 0 0 16-16v-32a16 16 0 0 0-16-16zm0-128H16a16 16 0 0 0-16 16v32a16 16 0 0 0 16 16h416a16 16 0 0 0 16-16v-32a16 16 0 0 0-16-16zm0-128H16A16 16 0 0 0 0 48v32a16 16 0 0 0 16 16h416a16 16 0 0 0 16-16V48a16 16 0 0 0-16-16z" />
  <path
     id="path835"
     d="m 9.6835637,478.05414 c -3.4544091,-1.82112 -5.85634,-4.21084 -7.548121,-7.50975 -1.35356939,-2.63941 -1.4964258,-4.801 -1.4964258,-22.6427 0,-17.8417 0.14285641,-20.00329 1.4964258,-22.6427 1.8920237,-3.68938 4.4155188,-6.05006 8.1234553,-7.59933 C 12.863854,416.57124 35.487224,416.4424 224,416.4424 c 188.51278,0 211.13615,0.12884 213.7411,1.21726 3.70793,1.54927 6.23143,3.90995 8.12346,7.59933 1.35361,2.6395 1.49642,4.80113 1.49642,22.65042 0,16.61232 -0.20108,20.13045 -1.27172,22.24946 -1.79504,3.55278 -4.1633,5.97152 -7.54487,7.70569 -2.84737,1.46022 -8.04262,1.49566 -214.70968,1.46493 C 32.279101,479.30101 11.817573,479.17916 9.6835637,478.05414 Z"
     style="fill:#ffffff;stroke:none;stroke-width:3.93241" />
  <path
     id="path837"
     d="M 12.628614,351.18232 C 9.1267122,350.35139 5.2000512,347.53108 2.9275417,344.21457 1.0389095,341.45829 1.0322581,341.37341 1.0322581,320.02706 v -21.42152 l 2.359447,-3.34025 c 1.2976958,-1.83714 3.7751152,-4.07961 5.5053763,-4.98327 l 3.1459296,-1.643 H 224 435.95699 l 3.14593,1.643 c 1.73026,0.90366 4.20768,3.14613 5.50537,4.98327 l 2.35945,3.34025 v 21.42152 c 0,21.34635 -0.006,21.43123 -1.89528,24.18751 -2.36704,3.45446 -6.16839,6.1018 -10.05821,7.00475 -3.67992,0.85423 -418.782881,0.81786 -422.385636,-0.037 z"
     style="fill:#ffffff;stroke:none;stroke-width:3.93241" />
  <path
     id="path839"
     d="M 11.256528,222.80755 C 7.3545174,221.43986 4.0441594,218.49445 2.2548698,214.79827 0.63664133,211.45546 0.57386541,210.4268 0.79801492,190.92607 1.0286063,170.8649 1.0618043,170.50412 2.9275417,167.78332 c 2.3678796,-3.45306 6.1698387,-6.10003 10.0582093,-7.00264 3.938618,-0.91428 418.089879,-0.91428 422.028499,0 3.88982,0.90295 7.69117,3.55029 10.05821,7.00475 1.88863,2.75628 1.89528,2.84116 1.89528,24.18751 v 21.42152 l -2.35945,3.34025 c -1.29769,1.83714 -3.77511,4.07961 -5.50537,4.98327 l -3.14593,1.643 -211.17051,0.13679 C 78.790862,223.59234 12.887764,223.37931 11.256528,222.80755 Z"
     style="fill:#ffffff;stroke:none;stroke-width:3.93241" />
  <path
     id="path841"
     d="M 10.08242,94.304751 C 6.4898388,92.746807 3.9885872,90.354661 2.0989967,86.669569 0.67496181,83.892407 0.58267307,82.217153 0.7991915,63.075099 1.0266416,42.966592 1.0762235,42.408406 2.8566812,39.912177 3.860114,38.505349 5.9560527,36.381846 7.5143228,35.193283 L 10.347541,33.032258 222.9786,32.831362 c 207.88088,-0.196408 212.69643,-0.167371 215.55741,1.299805 3.38952,1.738218 5.75704,4.154863 7.55325,7.709961 1.07064,2.119016 1.27172,5.637145 1.27172,22.249457 0,17.849294 -0.14281,20.010923 -1.49642,22.650424 -1.89203,3.689379 -4.41553,6.050059 -8.12346,7.599334 -2.60561,1.088691 -25.19941,1.214009 -213.91246,1.186476 C 37.142578,95.499583 12.512952,95.358765 10.08242,94.304751 Z"
     style="fill:#ffffff;stroke:none;stroke-width:3.93241" />
</svg>
